<svg xmlns="http://www.w3.org/2000/svg" xmlns:xlink="http://www.w3.org/1999/xlink" width="208.284" height="35.303" viewBox="0 0 208.284 35.303"><defs><linearGradient id="a" y1="1" x2="1" y2="1" gradientUnits="objectBoundingBox"><stop offset="0" stop-color="#c610c6"/><stop offset="1" stop-color="#30a6ef"/></linearGradient><clipPath id="b"><rect width="208.284" height="35.303" fill="none"/></clipPath><clipPath id="c"><path d="M724.57.652,712.3,22.83,701.944,11.817h-1.761l-2.624,14.148h6.691l.527-2.876,7.213,7.679h2.376L722.649,15.8l4.1,20h6.961L725.824.652Z" transform="translate(-697.559 -0.652)" fill="url(#a)"/></clipPath></defs><g clip-path="url(#b)"><path d="M11.561,41c-1.209-1.71-1.938-2.212-3.147-2.212-1.3,0-2.143.661-2.143,1.665a1.135,1.135,0,0,0,.433,1,11.656,11.656,0,0,0,2.189,1l1.893.707A11.687,11.687,0,0,1,14,44.946a5.073,5.073,0,0,1,1.847,4.1,6.541,6.541,0,0,1-2.463,5.2A7.779,7.779,0,0,1,8.1,56.12a7.569,7.569,0,0,1-6.476-3.17A13.465,13.465,0,0,1,0,49.689l4.333-1.733a9.066,9.066,0,0,0,1.8,2.645,2.837,2.837,0,0,0,1.984.73,2.166,2.166,0,0,0,2.417-2.143,1.279,1.279,0,0,0-.479-1.049,10.5,10.5,0,0,0-2.166-1l-2.1-.8c-3.079-1.186-4.629-3.1-4.629-5.746a6.006,6.006,0,0,1,2.3-4.857A7.825,7.825,0,0,1,8.46,34.046c3.261,0,5.427,1.459,7.228,4.9Z" transform="translate(0 -25.875)" fill="#30a6ef"/></g><g transform="translate(167.417 0.156)"><g clip-path="url(#c)"><rect width="36.153" height="35.147" transform="translate(0 0)" fill="url(#a)"/></g></g><g clip-path="url(#b)"><path d="M90.859,17.566l9.486,11.995H93.778L87.233,21.1l-1.984,1.938v6.522H79.936V2.192L85.249,0V16.244l7.5-7.388h7Z" transform="translate(-60.751 0)" fill="#30a6ef"/><path d="M170.384,56.6l-8.529-19.7h5.769l5.61,13.226L179.072,36.9h5.769L173.015,63.344H167.4Z" transform="translate(-123.01 -28.041)" fill="#30a6ef"/><path d="M312.144,47.068a6.163,6.163,0,0,0,1.323,2.622,5.111,5.111,0,0,0,3.854,1.619,5.909,5.909,0,0,0,4.4-1.71,12.1,12.1,0,0,0,1.049-1.459l4.515,1.87a13.986,13.986,0,0,1-3.056,3.763,10.682,10.682,0,0,1-6.886,2.349,10,10,0,0,1-8-3.626,11.06,11.06,0,0,1-2.668-7.434,11.416,11.416,0,0,1,1.345-5.45,10.28,10.28,0,0,1,3.922-4.15,10.1,10.1,0,0,1,5.177-1.414,9.472,9.472,0,0,1,7.411,3.215,12.073,12.073,0,0,1,2.873,8.323c0,.3,0,.8-.023,1.482Zm9.942-3.968c-.912-2.9-2.577-4.355-4.971-4.355-2.486,0-4.264,1.55-4.971,4.355Z" transform="translate(-233.069 -25.876)" fill="#30a6ef"/><path d="M412.349,29.561h-5.313V2.192L412.349,0Z" transform="translate(-309.345 0)" fill="#30a6ef"/><path d="M270.573,16.245V9.723L265.26,11.8V36.95h5.313V21.033h3.193V16.245Z" transform="translate(-201.596 -7.389)" fill="#30a6ef"/><path d="M448.738,47.068a6.161,6.161,0,0,0,1.323,2.622,5.111,5.111,0,0,0,3.854,1.619,5.909,5.909,0,0,0,4.4-1.71,12.071,12.071,0,0,0,1.049-1.459l4.515,1.87a13.987,13.987,0,0,1-3.056,3.763,10.682,10.682,0,0,1-6.886,2.349,10,10,0,0,1-8-3.626,11.06,11.06,0,0,1-2.668-7.434,11.416,11.416,0,0,1,1.345-5.45,10.28,10.28,0,0,1,3.922-4.15,10.1,10.1,0,0,1,5.177-1.414,9.471,9.471,0,0,1,7.411,3.215,12.073,12.073,0,0,1,2.873,8.323c0,.3,0,.8-.023,1.482ZM458.68,43.1c-.912-2.9-2.577-4.355-4.971-4.355-2.486,0-4.264,1.55-4.971,4.355Z" transform="translate(-336.88 -25.876)" fill="#30a6ef"/><path d="M555.584,41.777a13.7,13.7,0,0,0-2.736-2.372,5.487,5.487,0,0,0-2.531-.524,5.323,5.323,0,0,0-4.469,2.1,6.491,6.491,0,0,0-1.231,4.082,6.242,6.242,0,0,0,1.665,4.606,5.866,5.866,0,0,0,6.8.935,9.908,9.908,0,0,0,2.622-2.372l3.557,3.421a14.555,14.555,0,0,1-4.241,3.421,10.169,10.169,0,0,1-4.7,1.049,10.628,10.628,0,0,1-8.3-3.6,10.909,10.909,0,0,1-2.782-7.434,10.624,10.624,0,0,1,3.626-8.278,10.743,10.743,0,0,1,7.457-2.759,10.421,10.421,0,0,1,4.606.98,14.946,14.946,0,0,1,4.2,3.329Z" transform="translate(-409.815 -25.876)" fill="#30a6ef"/><path d="M643.016,55.388a7.783,7.783,0,1,1-7.783-7.783,7.783,7.783,0,0,1,7.783,7.783" transform="translate(-476.859 -36.18)" fill="#c610c6"/><path d="M844.581,36.933h2.171v.645h-.735v2.5h-.7v-2.5h-.74Z" transform="translate(-641.878 -28.069)" fill="#30a6ef"/><path d="M855.364,40.074h-.7V36.933h.641l.942,1.639.938-1.639h.64v3.141h-.7V38.331l-.631,1.116H856l-.636-1.116Z" transform="translate(-649.544 -28.069)" fill="#30a6ef"/></g></svg>